<?xml version="1.0" standalone="no"?>
<!DOCTYPE svg PUBLIC "-//W3C//DTD SVG 20010904//EN"
 "http://www.w3.org/TR/2001/REC-SVG-20010904/DTD/svg10.dtd">
<svg version="1.0" xmlns="http://www.w3.org/2000/svg"
 width="512.000000pt" height="512.000000pt" viewBox="0 0 512.000000 512.000000"
 preserveAspectRatio="xMidYMid meet">
<metadata>
Created by potrace 1.14, written by Peter Selinger 2001-2017
</metadata>
<g transform="translate(0.000000,512.000000) scale(0.100000,-0.100000)"
fill="#000000" stroke="none">
<path d="M2418 4985 c-2 -2 -46 -5 -98 -9 -815 -52 -1351 -413 -1621 -1094
-92 -230 -164 -553 -194 -862 -3 -36 -8 -81 -10 -100 -6 -55 -15 -264 -20
-510 -5 -220 -11 -340 -20 -410 -2 -19 -7 -64 -10 -100 -43 -444 -186 -1040
-380 -1580 -36 -100 -65 -183 -65 -184 0 -1 1152 -1 2560 -1 1408 0 2560 0
2560 1 0 0 -20 54 -44 120 -44 120 -127 370 -166 499 -11 39 -25 84 -30 100
-9 32 -30 110 -35 135 -2 8 -15 58 -28 110 -21 82 -65 289 -96 455 -8 42 -22
131 -26 170 -3 24 -17 132 -20 155 -2 14 -7 59 -10 100 -4 41 -9 93 -11 115
-2 22 -6 141 -9 265 -7 306 -18 556 -30 650 -2 19 -7 54 -10 78 -3 23 -7 61
-10 85 -3 23 -12 78 -20 122 -8 44 -17 96 -20 115 -3 19 -17 82 -32 140 -159
655 -501 1076 -1043 1285 -153 59 -384 113 -555 130 -33 3 -85 8 -115 11 -53
6 -387 13 -392 9z"/>
</g>
</svg>
